<svg fill="#fff" stroke-width="0" viewBox="0 0 18 18" height="200px" 
    width="200px" xmlns="http://www.w3.org/2000/svg">
    <!-- Background circle -->
    <circle cx="9" cy="9" r="9" fill="#364EFB" />
    <!-- Existing path, centered -->
    <path
        transform="translate(1, 1)"
        d="M6.634 1.135A7 7 0 0 1 15 8a.5.5 0 0 1-1 0 6 6 0 1 0-6.5 5.98v-1.005A5 5 0 1 1 13 8a.5.5 0 0 1-1 0 4 4 0 1 0-4.5 3.969v-1.011A2.999 2.999 0 1 1 11 8a.5.5 0 0 1-1 0 2 2 0 1 0-2.5 1.936v-1.07a1 1 0 1 1 1 0V15.5a.5.5 0 0 1-1 0v-.518a7 7 0 0 1-.866-13.847"></path>
</svg>
